<svg width="24" height="24" viewBox="0 0 24 24" fill="none" xmlns="http://www.w3.org/2000/svg">
<path d="M15.3655 3L18.5765 8.70072H21.9995V10.7506H20.8325L20.0755 20.0601C20.0547 20.3163 19.9408 20.555 19.7563 20.7291C19.5718 20.9032 19.3303 20.9999 19.0795 21H4.91951C4.66876 20.9999 4.42721 20.9032 4.24273 20.7291C4.05826 20.555 3.94432 20.3163 3.92351 20.0601L3.16551 10.7506H1.99951V8.70072H5.42151L8.63351 3L10.3655 4.02494L7.73151 8.70072H16.2665L13.6335 4.02494L15.3655 3ZM18.8255 10.7506H5.17251L5.83951 18.9501H18.1585L18.8255 10.7506ZM12.9995 12.8005V16.9002H10.9995V12.8005H12.9995ZM8.99951 12.8005V16.9002H6.99951V12.8005H8.99951ZM16.9995 12.8005V16.9002H14.9995V12.8005H16.9995Z" fill="#262626"/>
</svg>
