<svg width="24" height="24" viewBox="0 0 24 24" fill="none" xmlns="http://www.w3.org/2000/svg">
<path d="M11.2156 18.9593L11.2141 18.958C8.61871 16.6494 6.5466 14.8037 5.11129 13.0823C3.68684 11.374 2.99951 9.91422 2.99951 8.3951C2.99951 5.94419 4.95355 4 7.49951 4C8.94385 4 10.3404 4.66437 11.2444 5.70569L11.9995 6.57556L12.7547 5.70569C13.6587 4.66437 15.0552 4 16.4995 4C19.0455 4 20.9995 5.94419 20.9995 8.3951C20.9995 9.91423 20.3122 11.3741 18.8875 13.0838C17.4522 14.8064 15.3804 16.6542 12.7853 18.9675C12.7849 18.9678 12.7845 18.9682 12.7841 18.9685L12.002 19.6616L11.2156 18.9593Z" stroke="#262626" stroke-width="2"/>
</svg>
