<svg width="16" height="16" viewBox="0 0 16 16" fill="none" xmlns="http://www.w3.org/2000/svg">
<g clip-path="url(#clip0_146_5565)">
<path d="M14.7742 1.94217H6.78607V1.70966C6.78607 1.04245 6.24359 0.5 5.57639 0.5H3.65793C2.99069 0.5 2.44824 1.04245 2.44824 1.70966V1.94217H1.2258C0.825105 1.94217 0.5 2.26724 0.5 2.66797C0.5 3.06867 0.825105 3.39377 1.2258 3.39377H2.44825V3.62766C2.44825 4.29489 2.99069 4.83734 3.65793 4.83734H5.57639C6.24359 4.83734 6.78607 4.29489 6.78607 3.62766V3.39377H14.7742C15.1749 3.39377 15.5 3.06867 15.5 2.66797C15.5 2.26724 15.1749 1.94217 14.7742 1.94217ZM5.33444 3.38574H3.89984V1.9516H5.33444V3.38574Z" fill="#313133"/>
<path d="M14.7742 12.6067H13.5518V12.3728C13.5518 11.7056 13.0093 11.1631 12.3421 11.1631H10.4236C9.75641 11.1631 9.21393 11.7056 9.21393 12.3728V12.6067H1.2258C0.825105 12.6067 0.5 12.9318 0.5 13.3325C0.5 13.7332 0.825105 14.0583 1.2258 14.0583H9.21393V14.2908C9.21393 14.958 9.75641 15.5005 10.4236 15.5005H12.3421C13.0093 15.5005 13.5518 14.958 13.5518 14.2908V14.0583H14.7742C15.1749 14.0583 15.5 13.7332 15.5 13.3325C15.5 12.9318 15.1749 12.6067 14.7742 12.6067ZM12.1002 14.0488H10.6656V12.6147H12.1002V14.0488Z" fill="#313133"/>
<path d="M14.7742 7.27417H10.1689V7.04071C10.1689 6.3735 9.62644 5.83105 8.95923 5.83105H7.04077C6.37357 5.83105 5.83109 6.3735 5.83109 7.04071V7.27417H1.2258C0.825105 7.27417 0.5 7.59924 0.5 7.99997C0.5 8.40066 0.825105 8.72577 1.2258 8.72577H5.83109V8.9592C5.83109 9.6264 6.37357 10.1689 7.04077 10.1689H8.95922C9.62643 10.1689 10.1689 9.6264 10.1689 8.9592V8.72577H14.7742C15.1749 8.72577 15.5 8.40066 15.5 7.99997C15.5 7.59924 15.1749 7.27417 14.7742 7.27417ZM8.71731 8.71725H7.28268V7.28265H8.71731V8.71725Z" fill="#313133"/>
</g>
<defs>
<clipPath id="clip0_146_5565">
<rect width="16" height="16" fill="white"/>
</clipPath>
</defs>
</svg>
