<svg width="194" height="40" viewBox="0 0 194 40" fill="none" xmlns="http://www.w3.org/2000/svg">
<g opacity="0.6">
<path d="M49.061 26.9915L49.1505 26.4545H53.8966L53.8071 26.9915H51.7329L50.7358 33H50.1381L51.1353 26.9915H49.061Z" fill="#313133"/>
<path d="M53.5275 33L54.3457 28.0909H56.2793C56.7949 28.0909 57.1859 28.206 57.4522 28.4361C57.7185 28.6641 57.8197 28.9698 57.7558 29.3533C57.7068 29.6452 57.5843 29.8764 57.3883 30.0469C57.1922 30.2173 56.9472 30.3398 56.6532 30.4144C56.8343 30.4464 56.9973 30.5156 57.1422 30.6222C57.2892 30.7287 57.3989 30.8704 57.4714 31.0472C57.5438 31.2219 57.5598 31.4297 57.5193 31.6705C57.4767 31.9283 57.3755 32.1573 57.2157 32.3576C57.0559 32.5579 56.8503 32.7156 56.5989 32.8306C56.3496 32.9435 56.0641 33 55.7423 33H53.5275ZM54.1603 32.4727H55.8318C56.1301 32.4727 56.3805 32.3949 56.5829 32.2393C56.7874 32.0838 56.9089 31.8782 56.9472 31.6225C56.9962 31.3455 56.9515 31.125 56.813 30.9609C56.6745 30.7969 56.4668 30.7148 56.1898 30.7148H54.4543L54.1603 32.4727ZM54.5342 30.2099H55.9565C56.1738 30.2099 56.3698 30.1758 56.5445 30.1076C56.7192 30.0373 56.862 29.9393 56.9728 29.8136C57.0857 29.6857 57.155 29.5387 57.1805 29.3725C57.221 29.136 57.1539 28.9517 56.9792 28.8196C56.8066 28.6854 56.5435 28.6183 56.1898 28.6183H54.7995L54.5342 30.2099Z" fill="#313133"/>
<path d="M60.4764 33.1023C60.046 33.1023 59.6838 32.9936 59.3898 32.7763C59.0957 32.5568 58.888 32.2532 58.7666 31.8654C58.6451 31.4776 58.6249 31.0302 58.7058 30.5231C58.7868 30.0288 58.9477 29.5941 59.1884 29.2191C59.4313 28.842 59.7296 28.549 60.0833 28.3402C60.437 28.1293 60.8216 28.0238 61.2371 28.0238C61.6696 28.0238 62.0318 28.1335 62.3237 28.353C62.6178 28.5724 62.8255 28.8761 62.947 29.2638C63.0705 29.6516 63.0918 30.1001 63.0109 30.6094C62.9299 31.1016 62.768 31.5352 62.5251 31.9102C62.2822 32.283 61.9839 32.5749 61.6302 32.7859C61.2786 32.9968 60.894 33.1023 60.4764 33.1023ZM60.4828 32.5813C60.8323 32.5813 61.1433 32.4886 61.4161 32.3033C61.6909 32.1158 61.9178 31.8665 62.0968 31.5554C62.2758 31.2422 62.3962 30.8981 62.458 30.5231C62.5155 30.1651 62.5091 29.8359 62.4388 29.5355C62.3685 29.2351 62.2332 28.9943 62.0329 28.8132C61.8326 28.6321 61.5663 28.5415 61.2339 28.5415C60.8866 28.5415 60.5755 28.6364 60.3006 28.826C60.0258 29.0135 59.7989 29.2649 59.6199 29.5803C59.4409 29.8935 59.3216 30.2365 59.2619 30.6094C59.2023 30.9695 59.2065 31.2987 59.2747 31.5969C59.345 31.8952 59.4803 32.1339 59.6806 32.3129C59.883 32.4918 60.1504 32.5813 60.4828 32.5813Z" fill="#313133"/>
<path d="M64.5729 32.1914L67.8329 28.0909H68.5232L67.705 33H67.1361L67.8137 28.8995L64.5601 33H63.8634L64.6816 28.0909H65.2505L64.5729 32.1914ZM67.4525 26.4545H67.9895C67.9383 26.7592 67.7956 27.0064 67.5612 27.196C67.329 27.3857 67.0392 27.4805 66.6919 27.4805C66.3489 27.4805 66.0921 27.3857 65.9217 27.196C65.7533 27.0064 65.6947 26.7592 65.7459 26.4545H66.2828C66.2551 26.6207 66.2775 26.7614 66.3499 26.8764C66.4224 26.9893 66.5609 27.0458 66.7654 27.0458C66.9699 27.0458 67.1287 26.9893 67.2416 26.8764C67.3545 26.7614 67.4248 26.6207 67.4525 26.4545Z" fill="#313133"/>
<path d="M71.2558 33L71.3453 32.4631H71.4987C71.6734 32.4631 71.8194 32.4311 71.9366 32.3672C72.0559 32.3011 72.1582 32.1903 72.2434 32.0348C72.3307 31.8793 72.4117 31.6673 72.4863 31.3988C72.5609 31.1303 72.6408 30.7937 72.726 30.3888L73.2118 28.0909H76.3311L75.5129 33H74.9408L75.6695 28.6278H73.6624L73.2469 30.5806C73.1617 30.979 73.0712 31.3295 72.9753 31.6321C72.8815 31.9347 72.7697 32.1871 72.6397 32.3896C72.5097 32.592 72.3499 32.7443 72.1603 32.8466C71.9707 32.9489 71.7373 33 71.4604 33H71.2558Z" fill="#313133"/>
<path d="M79.5998 30.3281L79.5135 30.8651H77.0654L77.1549 30.3281H79.5998ZM78.0082 28.0909L77.19 33H76.6147L77.4361 28.0909H78.0082ZM80.7728 33.1023C80.3488 33.1023 79.9908 32.9947 79.6989 32.7795C79.4091 32.5643 79.2035 32.266 79.0821 31.8846C78.9628 31.5011 78.9457 31.0589 79.0309 30.5582C79.114 30.0575 79.2781 29.6175 79.5231 29.2383C79.7703 28.8569 80.0728 28.5597 80.4308 28.3466C80.7909 28.1314 81.1819 28.0238 81.6037 28.0238C82.0299 28.0238 82.3878 28.1314 82.6776 28.3466C82.9695 28.5618 83.1762 28.8612 83.2976 29.2447C83.4191 29.6282 83.4372 30.0714 83.352 30.5742C83.2689 31.0728 83.1037 31.5117 82.8566 31.891C82.6094 32.2702 82.3058 32.5675 81.9457 32.7827C81.5878 32.9957 81.1968 33.1023 80.7728 33.1023ZM80.8495 32.5813C81.1925 32.5813 81.4972 32.4897 81.7635 32.3065C82.032 32.1232 82.2525 31.8782 82.4251 31.5714C82.5998 31.2646 82.7181 30.9268 82.7799 30.5582C82.8395 30.1939 82.8331 29.8594 82.7607 29.5547C82.6883 29.2479 82.5498 29.0028 82.3452 28.8196C82.1407 28.6342 81.8701 28.5415 81.5334 28.5415C81.1925 28.5415 80.8878 28.6353 80.6194 28.8228C80.3509 29.0082 80.1293 29.2553 79.9546 29.5643C79.7799 29.8711 79.6627 30.2077 79.603 30.5742C79.5391 30.9407 79.5434 31.2763 79.6158 31.581C79.6904 31.8835 79.8299 32.1264 80.0345 32.3097C80.2412 32.4908 80.5128 32.5813 80.8495 32.5813Z" fill="#313133"/>
<path d="M88.9402 26.25L89.1767 26.6112C89.0212 26.7411 88.8465 26.8306 88.6526 26.8796C88.4587 26.9265 88.2467 26.9531 88.0166 26.9595C87.7864 26.9659 87.5393 26.9755 87.2751 26.9883C86.8937 27.0053 86.5656 27.1044 86.2907 27.2855C86.0158 27.4666 85.7868 27.7244 85.6036 28.0589C85.4203 28.3913 85.2733 28.7951 85.1625 29.2702H85.2264C85.4459 28.9357 85.7165 28.6811 86.0382 28.5064C86.3621 28.3317 86.703 28.2443 87.0609 28.2443C87.4381 28.2443 87.763 28.337 88.0357 28.5224C88.3106 28.7056 88.5077 28.9762 88.627 29.3342C88.7484 29.69 88.7666 30.1268 88.6813 30.6445C88.5982 31.1474 88.4406 31.5831 88.2083 31.9517C87.9761 32.3182 87.6852 32.6016 87.3358 32.8018C86.9885 33.0021 86.6007 33.1023 86.1725 33.1023C85.7484 33.1023 85.3916 33.0011 85.1018 32.7987C84.812 32.5962 84.6085 32.2979 84.4913 31.9038C84.3742 31.5096 84.3614 31.027 84.453 30.456L84.5425 29.9414C84.7321 28.7972 85.056 27.9364 85.5141 27.359C85.9722 26.7816 86.5794 26.4801 87.3358 26.4545C87.5808 26.446 87.8014 26.4439 87.9974 26.4482C88.1955 26.4503 88.3713 26.4407 88.5247 26.4194C88.6803 26.396 88.8188 26.3395 88.9402 26.25ZM86.2428 32.5813C86.5666 32.5813 86.8575 32.5014 87.1153 32.3416C87.3731 32.1797 87.5872 31.9528 87.7577 31.6609C87.9303 31.3668 88.0496 31.0217 88.1156 30.6254C88.1796 30.2312 88.1689 29.8956 88.0837 29.6186C88.0006 29.3416 87.8546 29.1307 87.6458 28.9858C87.4391 28.8388 87.1835 28.7653 86.8788 28.7653C86.6359 28.7653 86.41 28.8132 86.2012 28.9091C85.9924 29.0028 85.806 29.136 85.6419 29.3086C85.4778 29.479 85.3404 29.6793 85.2296 29.9094C85.121 30.1374 85.0432 30.3867 84.9963 30.6573C84.8983 31.2475 84.9633 31.7163 85.1913 32.0636C85.4214 32.4087 85.7719 32.5813 86.2428 32.5813Z" fill="#313133"/>
<path d="M90.2546 32.1914L93.5145 28.0909H94.2049L93.3867 33H92.8178L93.4953 28.8995L90.2418 33H89.5451L90.3632 28.0909H90.9321L90.2546 32.1914Z" fill="#313133"/>
<path d="M97.5862 32.2042L100.117 28.0909H100.67L97.6821 33H97.2283L95.9019 28.0909H96.4453L97.5862 32.2042ZM96.2759 28.0909L95.4577 33H94.8888L95.707 28.0909H96.2759ZM99.4527 33L100.271 28.0909H100.84L100.022 33H99.4527Z" fill="#313133"/>
<path d="M102.518 29.9862H103.953C104.502 29.9862 104.905 30.1214 105.161 30.392C105.419 30.6626 105.51 31.0291 105.436 31.4915C105.385 31.7919 105.273 32.0561 105.1 32.2841C104.928 32.5099 104.702 32.6857 104.423 32.8114C104.146 32.9371 103.822 33 103.451 33H101.54L102.358 28.0909H102.93L102.201 32.4631H103.54C103.886 32.4631 104.18 32.38 104.423 32.2138C104.665 32.0476 104.81 31.81 104.857 31.5011C104.91 31.1857 104.844 30.9439 104.659 30.7756C104.476 30.6072 104.212 30.5231 103.866 30.5231H102.428L102.518 29.9862ZM106.008 33L106.826 28.0909H107.395L106.577 33H106.008Z" fill="#313133"/>
<path d="M108.799 32.1914L112.059 28.0909H112.75L111.932 33H111.363L112.04 28.8995L108.787 33H108.09L108.908 28.0909H109.477L108.799 32.1914ZM111.679 26.4545H112.216C112.165 26.7592 112.022 27.0064 111.788 27.196C111.556 27.3857 111.266 27.4805 110.918 27.4805C110.575 27.4805 110.319 27.3857 110.148 27.196C109.98 27.0064 109.921 26.7592 109.972 26.4545H110.509C110.482 26.6207 110.504 26.7614 110.576 26.8764C110.649 26.9893 110.787 27.0458 110.992 27.0458C111.197 27.0458 111.355 26.9893 111.468 26.8764C111.581 26.7614 111.651 26.6207 111.679 26.4545Z" fill="#313133"/>
<path d="M115.965 33L116.783 28.0909H117.352L116.981 30.2994H117.509L119.704 28.0909H120.446L118.081 30.4528L119.672 33H118.944L117.608 30.8363H116.898L116.534 33H115.965Z" fill="#313133"/>
<path d="M124.367 30.2802L124.281 30.8171H121.392L121.481 30.2802H124.367ZM121.993 28.0909L121.174 33H120.606L121.421 28.0909H121.993ZM125.157 28.0909L124.339 33H123.77L124.585 28.0909H125.157Z" fill="#313133"/>
<path d="M126.562 32.1914L129.822 28.0909H130.512L129.694 33H129.125L129.803 28.8995L126.549 33H125.853L126.671 28.0909H127.24L126.562 32.1914Z" fill="#313133"/>
<path d="M130.883 33L133.462 30.5199L131.733 28.0909H132.417L133.939 30.2738H134.277L134.639 28.0909H135.211L134.846 30.2738H135.163L137.406 28.0909H138.106L135.569 30.5199L137.32 33H136.623L135.083 30.8107H134.763L134.392 33H133.82L134.191 30.8107H133.884L131.596 33H130.883Z" fill="#313133"/>
<path d="M142.279 30.2802L142.193 30.8171H139.304L139.393 30.2802H142.279ZM139.905 28.0909L139.087 33H138.518L139.333 28.0909H139.905ZM143.069 28.0909L142.251 33H141.682L142.497 28.0909H143.069Z" fill="#313133"/>
<path d="M144.749 29.9862H146.184C146.734 29.9862 147.137 30.1214 147.392 30.392C147.65 30.6626 147.742 31.0291 147.667 31.4915C147.616 31.7919 147.504 32.0561 147.332 32.2841C147.159 32.5099 146.933 32.6857 146.654 32.8114C146.377 32.9371 146.053 33 145.682 33H143.771L144.589 28.0909H145.161L144.433 32.4631H145.772C146.117 32.4631 146.411 32.38 146.654 32.2138C146.897 32.0476 147.042 31.81 147.089 31.5011C147.142 31.1857 147.076 30.9439 146.89 30.7756C146.707 30.6072 146.443 30.5231 146.098 30.5231H144.66L144.749 29.9862ZM148.239 33L149.057 28.0909H149.626L148.808 33H148.239Z" fill="#313133"/>
<path d="M151.031 32.1914L154.291 28.0909H154.981L154.163 33H153.594L154.272 28.8995L151.018 33H150.321L151.14 28.0909H151.708L151.031 32.1914ZM153.911 26.4545H154.447C154.396 26.7592 154.254 27.0064 154.019 27.196C153.787 27.3857 153.497 27.4805 153.15 27.4805C152.807 27.4805 152.55 27.3857 152.38 27.196C152.211 27.0064 152.153 26.7592 152.204 26.4545H152.741C152.713 26.6207 152.735 26.7614 152.808 26.8764C152.88 26.9893 153.019 27.0458 153.223 27.0458C153.428 27.0458 153.587 26.9893 153.7 26.8764C153.813 26.7614 153.883 26.6207 153.911 26.4545Z" fill="#313133"/>
<path d="M160.894 32.2042L163.425 28.0909H163.978L160.99 33H160.536L159.21 28.0909H159.753L160.894 32.2042ZM159.583 28.0909L158.765 33H158.196L159.015 28.0909H159.583ZM162.76 33L163.579 28.0909H164.147L163.329 33H162.76Z" fill="#313133"/>
<path d="M166.199 33.1119C165.903 33.1119 165.642 33.0543 165.416 32.9393C165.19 32.8221 165.022 32.6538 164.911 32.4343C164.803 32.2127 164.773 31.9442 164.822 31.6289C164.864 31.386 164.945 31.1815 165.065 31.0153C165.186 30.8491 165.34 30.7127 165.525 30.6062C165.71 30.4975 165.923 30.4123 166.164 30.3505C166.405 30.2887 166.667 30.2418 166.95 30.2099C167.227 30.1758 167.464 30.146 167.66 30.1204C167.856 30.0948 168.008 30.0543 168.117 29.9989C168.226 29.9435 168.291 29.854 168.312 29.7305L168.331 29.6154C168.386 29.2809 168.335 29.0178 168.178 28.826C168.02 28.6321 167.756 28.5352 167.385 28.5352C167.031 28.5352 166.724 28.614 166.465 28.7717C166.207 28.9272 166.015 29.1094 165.889 29.3182L165.384 29.1232C165.538 28.8548 165.726 28.6406 165.95 28.4808C166.174 28.3189 166.413 28.2028 166.669 28.1325C166.925 28.06 167.177 28.0238 167.427 28.0238C167.614 28.0238 167.805 28.0483 167.999 28.0973C168.193 28.1463 168.366 28.2315 168.52 28.353C168.675 28.4723 168.789 28.6396 168.862 28.8548C168.936 29.0678 168.947 29.3384 168.894 29.6665L168.337 33H167.769L167.9 32.2234H167.864C167.775 32.3683 167.651 32.5089 167.494 32.6452C167.338 32.7816 167.152 32.8935 166.934 32.9808C166.717 33.0682 166.472 33.1119 166.199 33.1119ZM166.343 32.5909C166.646 32.5909 166.919 32.5238 167.164 32.3896C167.412 32.2553 167.614 32.0774 167.772 31.8558C167.932 31.6321 168.034 31.386 168.079 31.1175L168.197 30.408C168.15 30.4485 168.073 30.4847 167.967 30.5167C167.862 30.5487 167.744 30.5774 167.612 30.603C167.482 30.6264 167.351 30.6467 167.219 30.6637C167.089 30.6808 166.974 30.6957 166.874 30.7085C166.59 30.7425 166.343 30.7958 166.132 30.8683C165.923 30.9407 165.756 31.0408 165.63 31.1687C165.505 31.2944 165.426 31.4563 165.394 31.6545C165.345 31.9528 165.41 32.1839 165.589 32.348C165.77 32.5099 166.021 32.5909 166.343 32.5909Z" fill="#313133"/>
<path d="M173.587 28.0909L173.497 28.6278H171.148L170.42 33H169.851L170.669 28.0909H173.587Z" fill="#313133"/>
<path d="M175.067 33.1119C174.771 33.1119 174.51 33.0543 174.284 32.9393C174.059 32.8221 173.89 32.6538 173.779 32.4343C173.671 32.2127 173.641 31.9442 173.69 31.6289C173.733 31.386 173.814 31.1815 173.933 31.0153C174.054 30.8491 174.208 30.7127 174.393 30.6062C174.578 30.4975 174.792 30.4123 175.032 30.3505C175.273 30.2887 175.535 30.2418 175.818 30.2099C176.095 30.1758 176.332 30.146 176.528 30.1204C176.724 30.0948 176.876 30.0543 176.985 29.9989C177.094 29.9435 177.159 29.854 177.18 29.7305L177.199 29.6154C177.255 29.2809 177.203 29.0178 177.046 28.826C176.888 28.6321 176.624 28.5352 176.253 28.5352C175.899 28.5352 175.593 28.614 175.333 28.7717C175.075 28.9272 174.883 29.1094 174.757 29.3182L174.252 29.1232C174.406 28.8548 174.594 28.6406 174.818 28.4808C175.042 28.3189 175.282 28.2028 175.537 28.1325C175.793 28.06 176.045 28.0238 176.295 28.0238C176.482 28.0238 176.673 28.0483 176.867 28.0973C177.061 28.1463 177.234 28.2315 177.388 28.353C177.543 28.4723 177.657 28.6396 177.73 28.8548C177.804 29.0678 177.815 29.3384 177.762 29.6665L177.206 33H176.637L176.768 32.2234H176.733C176.643 32.3683 176.519 32.5089 176.362 32.6452C176.206 32.7816 176.02 32.8935 175.803 32.9808C175.585 33.0682 175.34 33.1119 175.067 33.1119ZM175.211 32.5909C175.514 32.5909 175.788 32.5238 176.033 32.3896C176.28 32.2553 176.482 32.0774 176.64 31.8558C176.8 31.6321 176.902 31.386 176.947 31.1175L177.065 30.408C177.018 30.4485 176.941 30.4847 176.835 30.5167C176.73 30.5487 176.612 30.5774 176.48 30.603C176.35 30.6264 176.219 30.6467 176.087 30.6637C175.957 30.6808 175.842 30.6957 175.742 30.7085C175.458 30.7425 175.211 30.7958 175 30.8683C174.792 30.9407 174.624 31.0408 174.499 31.1687C174.373 31.2944 174.294 31.4563 174.262 31.6545C174.213 31.9528 174.278 32.1839 174.457 32.348C174.638 32.5099 174.89 32.5909 175.211 32.5909Z" fill="#313133"/>
<path d="M178.617 31.7472H179.221C179.193 32.0092 179.27 32.2138 179.451 32.3608C179.632 32.5078 179.893 32.5813 180.234 32.5813C180.585 32.5813 180.891 32.5025 181.151 32.3448C181.411 32.185 181.565 31.9528 181.614 31.6481C181.646 31.4627 181.63 31.3018 181.567 31.1655C181.505 31.0291 181.406 30.9226 181.269 30.8459C181.135 30.767 180.974 30.7266 180.787 30.7244H179.93L180.016 30.2035H180.867C181.161 30.1864 181.394 30.1076 181.567 29.967C181.741 29.8242 181.848 29.6378 181.886 29.4077C181.929 29.1456 181.872 28.9357 181.717 28.7781C181.561 28.6183 181.325 28.5384 181.007 28.5384C180.685 28.5384 180.403 28.6172 180.16 28.7749C179.917 28.9325 179.768 29.1349 179.713 29.3821H179.115C179.171 29.1158 179.29 28.8814 179.473 28.679C179.656 28.4744 179.884 28.3146 180.157 28.1996C180.432 28.0845 180.732 28.027 181.058 28.027C181.389 28.027 181.667 28.0866 181.893 28.206C182.118 28.3253 182.281 28.4883 182.382 28.695C182.482 28.8995 182.509 29.1317 182.465 29.3917C182.422 29.6623 182.311 29.8849 182.132 30.0597C181.955 30.2322 181.747 30.3537 181.506 30.424L181.496 30.4719C181.667 30.4911 181.809 30.555 181.924 30.6637C182.042 30.7724 182.125 30.9119 182.174 31.0824C182.223 31.2528 182.23 31.4414 182.196 31.6481C182.147 31.9379 182.029 32.1925 181.841 32.4119C181.654 32.6293 181.415 32.7987 181.125 32.9201C180.838 33.0415 180.517 33.1023 180.163 33.1023C179.825 33.1023 179.533 33.0458 179.288 32.9329C179.043 32.8178 178.861 32.6591 178.741 32.4567C178.622 32.2521 178.58 32.0156 178.617 31.7472Z" fill="#313133"/>
<path d="M183.849 32.1914L187.109 28.0909H187.8L186.981 33H186.413L187.09 28.8995L183.837 33H183.14L183.958 28.0909H184.527L183.849 32.1914Z" fill="#313133"/>
<path d="M192.245 30.2802L192.159 30.8171H189.27L189.359 30.2802H192.245ZM189.871 28.0909L189.052 33H188.484L189.299 28.0909H189.871ZM193.035 28.0909L192.216 33H191.648L192.463 28.0909H193.035Z" fill="#313133"/>
</g>
<path d="M49 18.8066V7.15924H53.2094C54.025 7.15924 54.7004 7.29573 55.2355 7.56872C55.7705 7.83791 56.1709 8.20379 56.4365 8.66635C56.7022 9.12512 56.835 9.64265 56.835 10.219C56.835 10.7043 56.7471 11.1137 56.5712 11.4474C56.3954 11.7773 56.1596 12.0427 55.864 12.2436C55.5722 12.4408 55.2504 12.5848 54.8987 12.6758V12.7896C55.2804 12.8085 55.6526 12.9336 56.0156 13.1649C56.3823 13.3924 56.6853 13.7166 56.9248 14.1374C57.1643 14.5583 57.284 15.0701 57.284 15.673C57.284 16.2682 57.1456 16.8028 56.8687 17.2768C56.5955 17.7469 56.1727 18.1204 55.6003 18.3972C55.0278 18.6701 54.2963 18.8066 53.4058 18.8066H49ZM50.7343 17.2995H53.2374C54.0681 17.2995 54.663 17.1365 55.0222 16.8104C55.3814 16.4844 55.561 16.0768 55.561 15.5877C55.561 15.2199 55.4693 14.8825 55.286 14.5754C55.1026 14.2682 54.8407 14.0237 54.5002 13.8417C54.1635 13.6597 53.7631 13.5687 53.2992 13.5687H50.7343V17.2995ZM50.7343 12.1981H53.0578C53.4469 12.1981 53.7968 12.1223 54.1073 11.9706C54.4216 11.819 54.6705 11.6066 54.8538 11.3336C55.0409 11.0569 55.1344 10.7308 55.1344 10.3555C55.1344 9.87393 54.9679 9.47014 54.6349 9.14408C54.3019 8.81801 53.7912 8.65498 53.1027 8.65498H50.7343V12.1981Z" fill="#262626"/>
<path d="M70.1158 12.9829C70.1158 14.2265 69.8913 15.2957 69.4423 16.1905C68.9933 17.0815 68.3778 17.7678 67.5958 18.2493C66.8175 18.727 65.9326 18.9659 64.9411 18.9659C63.9458 18.9659 63.0572 18.727 62.2752 18.2493C61.4969 17.7678 60.8833 17.0796 60.4343 16.1848C59.9853 15.29 59.7608 14.2227 59.7608 12.9829C59.7608 11.7393 59.9853 10.672 60.4343 9.78104C60.8833 8.88626 61.4969 8.2 62.2752 7.72227C63.0572 7.24076 63.9458 7 64.9411 7C65.9326 7 66.8175 7.24076 67.5958 7.72227C68.3778 8.2 68.9933 8.88626 69.4423 9.78104C69.8913 10.672 70.1158 11.7393 70.1158 12.9829ZM68.3984 12.9829C68.3984 12.0351 68.2468 11.237 67.9438 10.5886C67.6444 9.93649 67.2328 9.4436 66.709 9.10995C66.1889 8.77251 65.5996 8.60379 64.9411 8.60379C64.2788 8.60379 63.6876 8.77251 63.1676 9.10995C62.6475 9.4436 62.2359 9.93649 61.9328 10.5886C61.6335 11.237 61.4838 12.0351 61.4838 12.9829C61.4838 13.9308 61.6335 14.7308 61.9328 15.3829C62.2359 16.0313 62.6475 16.5242 63.1676 16.8616C63.6876 17.1953 64.2788 17.3621 64.9411 17.3621C65.5996 17.3621 66.1889 17.1953 66.709 16.8616C67.2328 16.5242 67.6444 16.0313 67.9438 15.3829C68.2468 14.7308 68.3984 13.9308 68.3984 12.9829Z" fill="#262626"/>
<path d="M83.0528 12.9829C83.0528 14.2265 82.8283 15.2957 82.3793 16.1905C81.9303 17.0815 81.3148 17.7678 80.5328 18.2493C79.7545 18.727 78.8696 18.9659 77.8781 18.9659C76.8828 18.9659 75.9942 18.727 75.2122 18.2493C74.4339 17.7678 73.8203 17.0796 73.3713 16.1848C72.9223 15.29 72.6978 14.2227 72.6978 12.9829C72.6978 11.7393 72.9223 10.672 73.3713 9.78104C73.8203 8.88626 74.4339 8.2 75.2122 7.72227C75.9942 7.24076 76.8828 7 77.8781 7C78.8696 7 79.7545 7.24076 80.5328 7.72227C81.3148 8.2 81.9303 8.88626 82.3793 9.78104C82.8283 10.672 83.0528 11.7393 83.0528 12.9829ZM81.3354 12.9829C81.3354 12.0351 81.1839 11.237 80.8808 10.5886C80.5814 9.93649 80.1699 9.4436 79.646 9.10995C79.1259 8.77251 78.5366 8.60379 77.8781 8.60379C77.2158 8.60379 76.6247 8.77251 76.1046 9.10995C75.5845 9.4436 75.1729 9.93649 74.8698 10.5886C74.5705 11.237 74.4208 12.0351 74.4208 12.9829C74.4208 13.9308 74.5705 14.7308 74.8698 15.3829C75.1729 16.0313 75.5845 16.5242 76.1046 16.8616C76.6247 17.1953 77.2158 17.3621 77.8781 17.3621C78.5366 17.3621 79.1259 17.1953 79.646 16.8616C80.1699 16.5242 80.5814 16.0313 80.8808 15.3829C81.1839 14.7308 81.3354 13.9308 81.3354 12.9829Z" fill="#262626"/>
<path d="M86.0052 18.8066V7.15924H87.7395V12.7213H87.8798L92.7009 7.15924H94.8842L90.2483 12.4028L94.901 18.8066H92.8132L89.0977 13.6028L87.7395 15.1839V18.8066H86.0052Z" fill="#262626"/>
<path d="M103.529 10.219C103.469 9.68057 103.222 9.26351 102.788 8.96777C102.354 8.66825 101.808 8.51848 101.149 8.51848C100.678 8.51848 100.27 8.59431 99.9258 8.74597C99.5816 8.89384 99.3141 9.09858 99.1233 9.36019C98.9362 9.61801 98.8426 9.91185 98.8426 10.2417C98.8426 10.5185 98.9062 10.7573 99.0335 10.9583C99.1644 11.1592 99.3347 11.328 99.5442 11.4645C99.7575 11.5972 99.9857 11.709 100.229 11.8C100.472 11.8872 100.706 11.9592 100.93 12.0161L102.053 12.3118C102.42 12.4028 102.796 12.5261 103.181 12.6815C103.566 12.837 103.924 13.0417 104.253 13.2957C104.582 13.5498 104.848 13.8645 105.05 14.2398C105.256 14.6152 105.359 15.0645 105.359 15.5877C105.359 16.2474 105.19 16.8332 104.854 17.345C104.521 17.8569 104.036 18.2607 103.4 18.5564C102.768 18.8521 102.002 19 101.104 19C100.244 19 99.4993 18.8616 98.8707 18.5848C98.2421 18.3081 97.7501 17.9156 97.3946 17.4076C97.0392 16.8957 96.8427 16.2891 96.8053 15.5877H98.5452C98.5789 16.0085 98.7136 16.3592 98.9493 16.6398C99.1887 16.9166 99.4937 17.1232 99.8641 17.2597C100.238 17.3924 100.648 17.4588 101.093 17.4588C101.583 17.4588 102.019 17.381 102.401 17.2256C102.786 17.0664 103.089 16.8464 103.31 16.5659C103.531 16.2815 103.641 15.9498 103.641 15.5706C103.641 15.2256 103.544 14.9431 103.349 14.7232C103.159 14.5033 102.899 14.3213 102.569 14.1773C102.244 14.0332 101.875 13.9062 101.464 13.7962L100.105 13.4209C99.185 13.1668 98.4554 12.7934 97.9166 12.3005C97.3815 11.8076 97.114 11.1554 97.114 10.3441C97.114 9.67299 97.2936 9.0872 97.6528 8.58673C98.012 8.08626 98.4984 7.69763 99.112 7.42085C99.7257 7.14028 100.418 7 101.189 7C101.967 7 102.654 7.13839 103.248 7.41517C103.847 7.69194 104.319 8.07299 104.663 8.55829C105.007 9.03981 105.187 9.59336 105.202 10.219H103.529Z" fill="#262626"/>
<path d="M107.654 8.67204V7.15924H116.55V8.67204H112.964V18.8066H111.235V8.67204H107.654Z" fill="#262626"/>
<path d="M128.797 12.9829C128.797 14.2265 128.572 15.2957 128.123 16.1905C127.674 17.0815 127.059 17.7678 126.277 18.2493C125.499 18.727 124.614 18.9659 123.622 18.9659C122.627 18.9659 121.738 18.727 120.956 18.2493C120.178 17.7678 119.564 17.0796 119.115 16.1848C118.666 15.29 118.442 14.2227 118.442 12.9829C118.442 11.7393 118.666 10.672 119.115 9.78104C119.564 8.88626 120.178 8.2 120.956 7.72227C121.738 7.24076 122.627 7 123.622 7C124.614 7 125.499 7.24076 126.277 7.72227C127.059 8.2 127.674 8.88626 128.123 9.78104C128.572 10.672 128.797 11.7393 128.797 12.9829ZM127.08 12.9829C127.08 12.0351 126.928 11.237 126.625 10.5886C126.326 9.93649 125.914 9.4436 125.39 9.10995C124.87 8.77251 124.281 8.60379 123.622 8.60379C122.96 8.60379 122.369 8.77251 121.849 9.10995C121.329 9.4436 120.917 9.93649 120.614 10.5886C120.315 11.237 120.165 12.0351 120.165 12.9829C120.165 13.9308 120.315 14.7308 120.614 15.3829C120.917 16.0313 121.329 16.5242 121.849 16.8616C122.369 17.1953 122.96 17.3621 123.622 17.3621C124.281 17.3621 124.87 17.1953 125.39 16.8616C125.914 16.5242 126.326 16.0313 126.625 15.3829C126.928 14.7308 127.08 13.9308 127.08 12.9829Z" fill="#262626"/>
<path d="M131.749 18.8066V7.15924H135.846C136.737 7.15924 137.476 7.31469 138.063 7.62559C138.655 7.93649 139.096 8.36682 139.388 8.91659C139.68 9.46256 139.826 10.0938 139.826 10.8104C139.826 11.5232 139.678 12.1507 139.382 12.6929C139.09 13.2313 138.649 13.6502 138.058 13.9498C137.47 14.2493 136.731 14.3991 135.841 14.3991H132.737V12.8863H135.684C136.245 12.8863 136.701 12.8047 137.053 12.6417C137.409 12.4787 137.669 12.2417 137.833 11.9308C137.998 11.6199 138.08 11.2464 138.08 10.8104C138.08 10.3706 137.996 9.98957 137.828 9.6673C137.663 9.34502 137.403 9.09858 137.048 8.92796C136.696 8.75355 136.234 8.66635 135.661 8.66635H133.484V18.8066H131.749ZM137.424 13.5517L140.264 18.8066H138.288L135.504 13.5517H137.424Z" fill="#262626"/>
<path d="M142.726 18.8066V7.15924H149.933V8.67204H144.46V12.2209H149.557V13.728H144.46V17.2938H150V18.8066H142.726Z" fill="#262626"/>
<rect width="40" height="40" rx="4" fill="#590CF2"/>
<path d="M6.78906 24V16H9.85156C10.4297 16 10.9102 16.0911 11.293 16.2734C11.6784 16.4531 11.9661 16.6992 12.1563 17.0117C12.349 17.3242 12.4453 17.6784 12.4453 18.0742C12.4453 18.3997 12.3828 18.6784 12.2578 18.9102C12.1328 19.1393 11.9648 19.3255 11.7539 19.4688C11.543 19.612 11.3073 19.7148 11.0469 19.7773V19.8555C11.3307 19.8711 11.6029 19.9583 11.8633 20.1172C12.1263 20.2734 12.3411 20.4948 12.5078 20.7812C12.6745 21.0677 12.7578 21.4141 12.7578 21.8203C12.7578 22.2344 12.6576 22.6068 12.457 22.9375C12.2565 23.2656 11.9544 23.5247 11.5508 23.7148C11.1471 23.9049 10.6393 24 10.0273 24H6.78906ZM8.23828 22.7891H9.79688C10.3229 22.7891 10.7018 22.6888 10.9336 22.4883C11.168 22.2852 11.2852 22.0247 11.2852 21.707C11.2852 21.4701 11.2266 21.2565 11.1094 21.0664C10.9922 20.8737 10.8255 20.7227 10.6094 20.6133C10.3932 20.5013 10.1354 20.4453 9.83594 20.4453H8.23828V22.7891ZM8.23828 19.4023H9.67188C9.92188 19.4023 10.1471 19.3568 10.3477 19.2656C10.5482 19.1719 10.7057 19.0404 10.8203 18.8711C10.9375 18.6992 10.9961 18.4961 10.9961 18.2617C10.9961 17.9518 10.8867 17.6966 10.668 17.4961C10.4518 17.2956 10.1302 17.1953 9.70313 17.1953H8.23828V19.4023Z" fill="#F7F3FE"/>
<path d="M16.5732 24.1172C15.9873 24.1172 15.4795 23.9883 15.0498 23.7305C14.6201 23.4727 14.2868 23.112 14.0498 22.6484C13.8154 22.1849 13.6982 21.6432 13.6982 21.0234C13.6982 20.4036 13.8154 19.8607 14.0498 19.3945C14.2868 18.9284 14.6201 18.5664 15.0498 18.3086C15.4795 18.0508 15.9873 17.9219 16.5732 17.9219C17.1592 17.9219 17.667 18.0508 18.0967 18.3086C18.5264 18.5664 18.8584 18.9284 19.0928 19.3945C19.3298 19.8607 19.4482 20.4036 19.4482 21.0234C19.4482 21.6432 19.3298 22.1849 19.0928 22.6484C18.8584 23.112 18.5264 23.4727 18.0967 23.7305C17.667 23.9883 17.1592 24.1172 16.5732 24.1172ZM16.5811 22.9844C16.8988 22.9844 17.1644 22.8971 17.3779 22.7227C17.5915 22.5456 17.7503 22.3086 17.8545 22.0117C17.9613 21.7148 18.0146 21.3841 18.0146 21.0195C18.0146 20.6523 17.9613 20.3203 17.8545 20.0234C17.7503 19.724 17.5915 19.4857 17.3779 19.3086C17.1644 19.1315 16.8988 19.043 16.5811 19.043C16.2555 19.043 15.9847 19.1315 15.7686 19.3086C15.555 19.4857 15.3949 19.724 15.2881 20.0234C15.1839 20.3203 15.1318 20.6523 15.1318 21.0195C15.1318 21.3841 15.1839 21.7148 15.2881 22.0117C15.3949 22.3086 15.555 22.5456 15.7686 22.7227C15.9847 22.8971 16.2555 22.9844 16.5811 22.9844Z" fill="#F7F3FE"/>
<path d="M23.2656 24.1172C22.6797 24.1172 22.1719 23.9883 21.7422 23.7305C21.3125 23.4727 20.9792 23.112 20.7422 22.6484C20.5078 22.1849 20.3906 21.6432 20.3906 21.0234C20.3906 20.4036 20.5078 19.8607 20.7422 19.3945C20.9792 18.9284 21.3125 18.5664 21.7422 18.3086C22.1719 18.0508 22.6797 17.9219 23.2656 17.9219C23.8516 17.9219 24.3594 18.0508 24.7891 18.3086C25.2188 18.5664 25.5508 18.9284 25.7852 19.3945C26.0221 19.8607 26.1406 20.4036 26.1406 21.0234C26.1406 21.6432 26.0221 22.1849 25.7852 22.6484C25.5508 23.112 25.2188 23.4727 24.7891 23.7305C24.3594 23.9883 23.8516 24.1172 23.2656 24.1172ZM23.2734 22.9844C23.5911 22.9844 23.8568 22.8971 24.0703 22.7227C24.2839 22.5456 24.4427 22.3086 24.5469 22.0117C24.6536 21.7148 24.707 21.3841 24.707 21.0195C24.707 20.6523 24.6536 20.3203 24.5469 20.0234C24.4427 19.724 24.2839 19.4857 24.0703 19.3086C23.8568 19.1315 23.5911 19.043 23.2734 19.043C22.9479 19.043 22.6771 19.1315 22.4609 19.3086C22.2474 19.4857 22.0872 19.724 21.9805 20.0234C21.8763 20.3203 21.8242 20.6523 21.8242 21.0195C21.8242 21.3841 21.8763 21.7148 21.9805 22.0117C22.0872 22.3086 22.2474 22.5456 22.4609 22.7227C22.6771 22.8971 22.9479 22.9844 23.2734 22.9844Z" fill="#F7F3FE"/>
<path d="M27.4033 24V16H28.8525V19.6758H28.9502L32.0713 16H33.8408L30.7471 19.5898L33.8682 24H32.126L29.7393 20.5703L28.8525 21.6172V24H27.4033Z" fill="#F7F3FE"/>
<path d="M9.2415 28.0365L8.71451 28.1856C8.68137 28.0978 8.63248 28.0125 8.56785 27.9296C8.50488 27.8451 8.4187 27.7755 8.30933 27.7208C8.19995 27.6661 8.05992 27.6388 7.88923 27.6388C7.65556 27.6388 7.46084 27.6926 7.30506 27.8003C7.15095 27.9064 7.07389 28.0415 7.07389 28.2055C7.07389 28.3514 7.12692 28.4665 7.23298 28.551C7.33904 28.6356 7.50476 28.706 7.73014 28.7623L8.2969 28.9015C8.63828 28.9844 8.89266 29.1112 9.06004 29.2819C9.22741 29.4509 9.3111 29.6688 9.3111 29.9356C9.3111 30.1544 9.24813 30.3499 9.12218 30.5223C8.99789 30.6946 8.82389 30.8305 8.60016 30.93C8.37644 31.0294 8.11626 31.0791 7.81962 31.0791C7.43018 31.0791 7.10786 30.9946 6.85265 30.8256C6.59744 30.6565 6.43586 30.4096 6.36792 30.0848L6.92474 29.9456C6.97777 30.1511 7.07803 30.3052 7.22552 30.4079C7.37467 30.5107 7.56939 30.5621 7.80968 30.5621C8.08312 30.5621 8.30021 30.5041 8.46096 30.3881C8.62337 30.2704 8.70457 30.1295 8.70457 29.9655C8.70457 29.8329 8.65817 29.7219 8.56536 29.6324C8.47256 29.5412 8.33004 29.4733 8.13781 29.4285L7.50144 29.2794C7.15177 29.1965 6.89491 29.0681 6.73085 28.8941C6.56844 28.7184 6.48724 28.4988 6.48724 28.2354C6.48724 28.0199 6.54773 27.8293 6.6687 27.6636C6.79133 27.4979 6.95788 27.3678 7.16835 27.2733C7.38047 27.1789 7.62076 27.1317 7.88923 27.1317C8.26707 27.1317 8.56371 27.2145 8.77914 27.3802C8.99623 27.546 9.15035 27.7647 9.2415 28.0365Z" fill="#F7F3FE"/>
<path d="M11.8547 27.1814V27.6785H9.876V27.1814H11.8547ZM10.4527 26.2666H11.0394V29.9058C11.0394 30.0715 11.0634 30.1958 11.1114 30.2787C11.1612 30.3599 11.2241 30.4146 11.3004 30.4427C11.3782 30.4693 11.4603 30.4825 11.5465 30.4825C11.6111 30.4825 11.6641 30.4792 11.7055 30.4726C11.747 30.4643 11.7801 30.4577 11.805 30.4527L11.9243 30.9797C11.8845 30.9946 11.829 31.0095 11.7577 31.0244C11.6865 31.041 11.5962 31.0493 11.4868 31.0493C11.3211 31.0493 11.1587 31.0136 10.9996 30.9424C10.8421 30.8711 10.7112 30.7626 10.6068 30.6167C10.5041 30.4709 10.4527 30.287 10.4527 30.0649V26.2666Z" fill="#F7F3FE"/>
<path d="M14.2473 31.0791C13.9026 31.0791 13.6001 30.9971 13.34 30.833C13.0814 30.6689 12.8793 30.4394 12.7334 30.1444C12.5892 29.8495 12.5172 29.5048 12.5172 29.1104C12.5172 28.7126 12.5892 28.3654 12.7334 28.0688C12.8793 27.7722 13.0814 27.5418 13.34 27.3778C13.6001 27.2137 13.9026 27.1317 14.2473 27.1317C14.592 27.1317 14.8936 27.2137 15.1521 27.3778C15.4123 27.5418 15.6145 27.7722 15.7586 28.0688C15.9045 28.3654 15.9774 28.7126 15.9774 29.1104C15.9774 29.5048 15.9045 29.8495 15.7586 30.1444C15.6145 30.4394 15.4123 30.6689 15.1521 30.833C14.8936 30.9971 14.592 31.0791 14.2473 31.0791ZM14.2473 30.5521C14.5091 30.5521 14.7245 30.485 14.8936 30.3508C15.0626 30.2165 15.1877 30.04 15.2689 29.8213C15.3501 29.6025 15.3907 29.3656 15.3907 29.1104C15.3907 28.8551 15.3501 28.6173 15.2689 28.3969C15.1877 28.1765 15.0626 27.9984 14.8936 27.8625C14.7245 27.7266 14.5091 27.6586 14.2473 27.6586C13.9854 27.6586 13.77 27.7266 13.601 27.8625C13.4319 27.9984 13.3068 28.1765 13.2256 28.3969C13.1444 28.6173 13.1038 28.8551 13.1038 29.1104C13.1038 29.3656 13.1444 29.6025 13.2256 29.8213C13.3068 30.04 13.4319 30.2165 13.601 30.3508C13.77 30.485 13.9854 30.5521 14.2473 30.5521Z" fill="#F7F3FE"/>
<path d="M16.8729 30.9996V27.1814H17.4397V27.7581H17.4794C17.549 27.5692 17.675 27.4159 17.8573 27.2982C18.0396 27.1805 18.2451 27.1217 18.4737 27.1217C18.5168 27.1217 18.5707 27.1225 18.6353 27.1242C18.7 27.1259 18.7488 27.1283 18.782 27.1317V27.7282C18.7621 27.7233 18.7165 27.7158 18.6453 27.7059C18.5757 27.6943 18.5019 27.6885 18.424 27.6885C18.2384 27.6885 18.0727 27.7274 17.9269 27.8053C17.7827 27.8815 17.6683 27.9876 17.5838 28.1235C17.501 28.2577 17.4595 28.411 17.4595 28.5834V30.9996H16.8729Z" fill="#F7F3FE"/>
<path d="M20.962 31.0791C20.5941 31.0791 20.2768 30.9979 20.01 30.8355C19.7448 30.6714 19.5402 30.4427 19.396 30.1494C19.2535 29.8544 19.1822 29.5114 19.1822 29.1203C19.1822 28.7292 19.2535 28.3845 19.396 28.0862C19.5402 27.7863 19.7407 27.5526 19.9975 27.3852C20.2561 27.2162 20.5577 27.1317 20.9024 27.1317C21.1012 27.1317 21.2976 27.1648 21.4915 27.2311C21.6854 27.2974 21.8619 27.4051 22.021 27.5542C22.1801 27.7017 22.3068 27.8973 22.4013 28.1409C22.4958 28.3845 22.543 28.6845 22.543 29.0407V29.2893H19.5998V28.7822H21.9464C21.9464 28.5668 21.9033 28.3746 21.8171 28.2055C21.7326 28.0365 21.6116 27.9031 21.4542 27.8053C21.2984 27.7075 21.1145 27.6586 20.9024 27.6586C20.6687 27.6586 20.4665 27.7166 20.2958 27.8327C20.1268 27.947 19.9967 28.0961 19.9056 28.2801C19.8144 28.464 19.7688 28.6613 19.7688 28.8717V29.2098C19.7688 29.4981 19.8186 29.7426 19.918 29.9431C20.0191 30.142 20.1591 30.2936 20.3381 30.398C20.5171 30.5007 20.725 30.5521 20.962 30.5521C21.1161 30.5521 21.2553 30.5306 21.3796 30.4875C21.5056 30.4427 21.6141 30.3765 21.7053 30.2886C21.7964 30.1991 21.8669 30.0881 21.9166 29.9555L22.4833 30.1146C22.4237 30.3068 22.3234 30.4759 22.1826 30.6217C22.0417 30.7659 21.8677 30.8786 21.6605 30.9598C21.4534 31.0393 21.2205 31.0791 20.962 31.0791Z" fill="#F7F3FE"/>
<path d="M7 12V0H15V12L11 8L7 12Z" fill="white"/>
</svg>
